0
SECTION
2
HEADER
9
$ACADVER
1
AC1009
9
$INSUNITS
70
6
0
ENDSEC
0
SECTION
2
TABLES
0
TABLE
2
LAYER
70
3
0
LAYER
2
A-WALL
70
0
62
7
6
CONTINUOUS
0
LAYER
2
A-GLAZ
70
0
62
5
6
CONTINUOUS
0
LAYER
2
A-DOOR
70
0
62
30
6
CONTINUOUS
0
ENDTAB
0
ENDSEC
0
SECTION
2
ENTITIES
0
LWPOLYLINE
8
A-WALL
90
4
70
1
10
0.0
20
0.0
10
5.0
20
0.0
10
5.0
20
5.0
10
0.0
20
5.0
0
LINE
8
A-GLAZ
10
1.5
20
0.0
30
0.0
11
3.5
21
0.0
31
0.0
0
LINE
8
A-GLAZ
10
0.0
20
1.5
30
0.0
11
0.0
21
3.5
31
0.0
0
LINE
8
A-DOOR
10
3.0
20
5.0
30
0.0
11
4.0
21
5.0
31
0.0
0
ENDSEC
0
EOF
